<svg xmlns="http://www.w3.org/2000/svg" viewBox="0 0 32 32">
  <defs>
    <linearGradient id="shieldGrad" x1="0%" y1="0%" x2="0%" y2="100%">
      <stop offset="0%" style="stop-color:#34d399;stop-opacity:1" />
      <stop offset="100%" style="stop-color:#10b981;stop-opacity:1" />
    </linearGradient>
  </defs>
  <path d="M16 2L4 7v8c0 7.5 5.1 14.5 12 16 6.9-1.5 12-8.5 12-16V7L16 2z" fill="url(#shieldGrad)"/>
  <path d="M16 8c-2.2 0-4 1.8-4 4 0 1.5.8 2.7 2 3.4V20c0 1.1.9 2 2 2s2-.9 2-2v-4.6c1.2-.7 2-1.9 2-3.4 0-2.2-1.8-4-4-4zm0 5c-.6 0-1-.4-1-1s.4-1 1-1 1 .4 1 1-.4 1-1 1z" fill="#1a1a1a"/>
</svg>
